<?xml version="1.0" standalone="no"?>
<!DOCTYPE svg PUBLIC "-//W3C//DTD SVG 20010904//EN"
 "http://www.w3.org/TR/2001/REC-SVG-20010904/DTD/svg10.dtd">
<svg version="1.0" xmlns="http://www.w3.org/2000/svg"
 width="800.000000pt" height="435.000000pt" viewBox="0 0 800.000000 435.000000"
 preserveAspectRatio="xMidYMid meet">

<g transform="translate(0.000000,435.000000) scale(0.100000,-0.100000)"
fill="#000000" stroke="none">
<path d="M4130 2346 c-56 -29 -71 -43 -90 -82 -24 -49 -26 -102 -4 -132 11
-16 14 -34 10 -57 -5 -25 -1 -46 13 -74 22 -42 74 -73 181 -106 l56 -17 1 -66
c0 -37 1 -76 2 -87 1 -11 1 -39 0 -63 -1 -33 6 -52 33 -88 40 -57 88 -84 146
-84 66 0 47 -23 -29 -36 -65 -10 -136 -40 -125 -52 13 -12 89 -1 115 18 39 27
71 35 71 16 0 -20 54 -48 83 -44 18 2 23 11 25 44 l3 41 69 5 c84 6 132 37
161 104 11 23 25 44 32 47 9 3 9 13 0 50 -19 71 -17 92 12 105 15 7 25 20 25
32 0 11 5 20 10 20 6 0 10 23 10 50 0 46 -4 54 -47 99 -42 42 -56 50 -111 60
-34 7 -67 9 -72 6 -5 -3 -25 5 -43 19 -34 26 -81 34 -92 16 -3 -5 -20 -10 -36
-10 -36 0 -69 -16 -87 -42 -21 -30 -32 -21 -32 27 0 77 -57 153 -129 172 -26
7 -36 16 -46 47 -8 22 -20 44 -27 51 -21 20 -62 25 -88 11z"/>
<path d="M1438 1701 c-98 -49 -165 -128 -195 -229 -17 -59 -19 -61 -57 -68
-63 -10 -138 -49 -185 -96 -43 -42 -101 -146 -101 -181 0 -10 -8 -20 -17 -23
-50 -16 -121 -52 -150 -77 -28 -24 -35 -27 -54 -17 -68 37 -133 29 -187 -23
-38 -37 -72 -102 -72 -140 l0 -27 245 0 c227 0 245 1 245 18 1 16 1 16 11 -1
8 -14 14 -15 31 -6 16 9 23 8 29 -2 7 -12 11 -11 19 1 9 13 11 13 21 0 8 -12
9 -9 5 13 -4 15 -2 36 4 47 17 31 66 52 103 44 32 -6 32 -6 -15 36 -41 36 -48
47 -48 79 0 74 67 94 133 40 l37 -31 -25 48 c-27 51 -31 89 -13 129 17 38 68
35 102 -6 14 -17 27 -38 27 -47 1 -9 5 5 10 32 23 139 121 132 138 -11 7 -53
8 -55 16 -28 15 54 43 85 79 85 17 0 37 -5 44 -12 21 -21 14 -99 -13 -146
l-24 -43 37 31 c65 54 132 33 132 -42 0 -29 -8 -43 -40 -72 -22 -20 -40 -37
-40 -39 0 -1 20 -2 45 -2 38 0 50 5 88 43 35 35 53 44 96 51 36 6 57 15 67 30
32 46 120 66 164 39 16 -10 24 -10 40 0 56 35 146 -20 152 -92 2 -18 6 -23 18
-17 19 10 63 5 89 -8 16 -9 22 -6 41 25 20 36 21 37 2 58 -77 87 -107 115
-127 120 -18 5 -27 18 -39 59 -16 54 -78 159 -112 188 -10 9 -44 30 -74 45
-46 25 -67 29 -130 29 -41 0 -89 -4 -106 -9 -29 -7 -31 -6 -50 35 -29 65 -119
152 -178 172 -67 23 -170 22 -218 -2z"/>
<path d="M3433 1703 c21 -6 23 -23 1 -23 -8 0 -13 -4 -10 -9 6 -9 56 9 56 20
0 7 -39 19 -55 18 -5 -1 -2 -3 8 -6z"/>
<path d="M3497 1589 c-32 -4 -60 -9 -64 -12 -11 -12 7 -37 32 -47 42 -16 61
-12 79 16 28 41 18 50 -47 43z"/>
<path d="M5013 1380 c4 -16 0 -20 -19 -20 -33 0 -30 -10 11 -43 34 -27 37 -28
60 -13 29 19 33 28 8 19 -12 -5 -15 -2 -10 10 3 9 2 17 -3 17 -6 0 -10 -4 -10
-10 0 -5 -7 -7 -16 -3 -10 3 -12 9 -6 15 12 12 4 48 -10 48 -6 0 -8 -9 -5 -20z"/>
<path d="M6874 1311 c-73 -27 -105 -46 -137 -80 -34 -37 -38 -37 -62 -11 -13
14 -31 20 -59 20 -48 0 -80 -19 -101 -59 -11 -23 -23 -29 -62 -35 -57 -7 -180
-48 -181 -59 -1 -4 -19 -28 -40 -52 -33 -37 -46 -45 -74 -45 -43 0 -50 7 -37
34 10 20 10 20 -5 2 -9 -11 -16 -22 -16 -25 0 -3 -20 -14 -45 -24 -24 -10 -47
-27 -50 -37 -4 -11 -20 -20 -45 -24 -22 -3 -43 -14 -49 -24 -8 -15 -3 -19 42
-29 78 -18 187 -17 187 2 0 18 17 20 23 3 3 -10 9 -10 25 -1 11 6 23 9 27 5 3
-4 22 -7 40 -7 19 -1 38 -4 41 -8 11 -11 284 -8 284 3 0 5 6 7 14 4 8 -3 17
-1 21 5 4 7 14 6 30 -5 24 -16 132 -17 142 -1 2 4 13 5 24 2 11 -4 19 -2 19 6
0 8 4 8 16 -2 12 -10 20 -10 35 -1 16 10 19 9 19 -3 0 -11 11 -15 43 -15 40 0
45 3 60 35 22 47 54 47 85 0 l22 -35 100 0 c55 0 99 3 99 8 -3 19 2 25 11 12
8 -12 13 -13 30 -2 26 16 30 15 30 -5 1 -17 1 -17 11 0 9 15 13 16 26 6 8 -7
32 -14 54 -16 33 -3 39 -1 39 15 0 12 -16 25 -47 40 -27 12 -59 29 -73 37 -14
8 -47 15 -74 15 l-49 0 21 23 c89 94 35 247 -110 313 -83 37 -224 44 -304 15z"/>
<path d="M6697 1309 c7 -7 15 -10 18 -7 3 3 -2 9 -12 12 -14 6 -15 5 -6 -5z"/>
<path d="M6554 1294 c-19 -15 -19 -15 1 -6 11 5 27 12 35 15 13 5 13 6 -1 6
-8 1 -24 -6 -35 -15z"/>
<path d="M6315 1199 c-4 -6 -5 -12 -2 -15 2 -3 7 2 10 11 7 17 1 20 -8 4z"/>
<path d="M2024 1075 c-29 -14 -54 -36 -54 -45 0 -4 14 -13 30 -20 17 -7 45
-32 61 -56 l30 -44 38 30 c39 32 89 41 148 27 l31 -8 -8 38 c-11 48 -64 97
-95 86 -21 -8 -67 -8 -125 -1 -19 2 -45 -1 -56 -7z"/>
<path d="M4423 1060 c-27 -11 -28 -18 -7 -45 11 -13 18 -16 21 -8 2 7 10 10
17 7 7 -3 19 2 26 11 10 12 10 18 0 30 -14 17 -25 18 -57 5z"/>
<path d="M3010 1015 c-19 -19 -28 -38 -25 -47 4 -10 -1 -17 -15 -21 -35 -9
-20 -39 39 -78 53 -36 187 -86 199 -75 3 3 13 41 23 84 12 55 17 67 18 42 0
-19 -3 -51 -8 -72 -8 -32 -6 -37 13 -40 26 -5 216 9 223 16 3 3 -2 42 -11 88
-9 46 -17 89 -18 95 -1 9 -13 11 -42 5 -82 -14 -247 -7 -308 15 l-57 20 -31
-32z"/>
<path d="M2325 960 c-4 -6 5 -24 18 -40 22 -25 27 -27 37 -15 7 8 20 15 30 15
25 0 30 10 17 31 -9 14 -23 19 -54 19 -23 0 -45 -5 -48 -10z"/>
<path d="M4060 768 c-22 -33 -40 -64 -40 -69 0 -16 16 -10 39 15 13 14 29 22
36 20 7 -3 15 3 19 13 24 68 24 71 5 76 -14 4 -28 -10 -59 -55z"/>
<path d="M6936 708 c-9 -12 -16 -33 -16 -45 0 -19 5 -23 33 -23 18 0 41 6 52
13 17 13 17 15 -1 45 -22 37 -47 41 -68 10z"/>
<path d="M2192 676 c-36 -31 -52 -33 -52 -6 0 28 -18 25 -26 -5 -7 -30 -20
-32 -34 -5 -12 23 -35 28 -27 6 3 -8 2 -16 -3 -18 -5 -2 -7 -13 -4 -25 6 -22
12 -23 93 -23 61 0 93 4 107 15 10 8 14 15 9 15 -6 0 -16 -5 -23 -12 -16 -16
-17 15 -1 44 18 34 -4 42 -39 14z"/>
<path d="M4624 447 c-14 -38 0 -51 76 -68 41 -10 77 -16 79 -14 8 8 -14 28
-45 41 -19 8 -34 21 -34 29 0 8 -6 15 -12 15 -7 0 -23 3 -35 6 -15 4 -25 1
-29 -9z"/>
<path d="M3115 421 c-6 -5 -23 -11 -40 -14 -28 -4 -28 -4 6 -6 19 0 44 6 55
14 15 11 16 14 4 15 -9 0 -20 -4 -25 -9z"/>
<path d="M3400 420 c-8 -5 -12 -11 -9 -14 2 -3 11 -1 19 4 8 5 12 11 9 14 -2
3 -11 1 -19 -4z"/>
<path d="M2288 393 c6 -2 18 -2 25 0 6 3 1 5 -13 5 -14 0 -19 -2 -12 -5z"/>
<path d="M2393 393 c9 -2 23 -2 30 0 6 3 -1 5 -18 5 -16 0 -22 -2 -12 -5z"/>
</g>
</svg>
